PLOT

A tough aspiring chef is hired to bring home a mobster's son from the Amazon but becomes
involved in the fight against an oppressive town operator and the search for a legendary treasure.

Encoded By .......: BigPerm
Runtime ..........: 1h 42mn
File Size ........: 947 MB
Resolution .......: 720 x 304 
http://www.imdb.com/title/tt0327850/
Genre ............: Action,Adventure,Comedy
Language .........: English
Subtitles ........: None
Video
ID : 0
Format : MPEG-4 Visual
Format profile : Advanced Simple@L5
Format settings, BVOP : Yes
Format settings, QPel : No
Format settings, GMC : No warppoints
Format settings, Matrix : Default (H.263)
Muxing mode : Packed bitstream
Codec ID : XVID
Codec ID/Hint : XviD
Duration : 1h 42mn
Bit rate : 832 Kbps
Width : 720 pixels
Height : 304 pixels
Display aspect ratio : 2.35:1
Frame rate : 23.976 fps
Color space : YUV
Chroma subsampling : 4:2:0
Bit depth : 8 bits
Scan type : Progressive
Compression mode : Lossy
Bits/(Pixel*Frame) : 0.159
Stream size : 611 MiB (65%)
Writing library : XviD 64
Audio
ID : 1
Format : AC-3
Format/Info : Audio Coding 3
Mode extension : CM (complete main)
Codec ID : 2000
Duration : 1h 42mn
Bit rate mode : Constant
Bit rate : 448 Kbps
Channel(s) : 6 channels
Channel positions : Front: L C R, Side: L R, LFE
Sampling rate : 48.0 KHz
Bit depth : 16 bits
Compression mode : Lossy
Stream size : 329 MiB (35%)
Alignment : Split accross interleaves
Interleave, duration : 42 ms (1.00 video frame)
Interleave, preload duration : 500 ms
 
http://www.shotpix.com/images/08835026052193269332.png 
http://www.shotpix.com/images/66765900517472928122.png 
http://www.shotpix.com/images/36825240749247796443.png 
http://www.shotpix.com/images/27435344036168982177.png 
http://www.shotpix.com/images/20521429317272394255.png